<svg xmlns="http://www.w3.org/2000/svg" viewBox="0 0 1200 700">
  <rect width="1200" height="700" fill="#4d7c0f"/>
  <rect x="70" y="60" width="1060" height="580" rx="8" fill="#1e40af"/>
  <rect x="70" y="60" width="1060" height="580" rx="8" fill="none" stroke="#1f2937" stroke-width="6" stroke-dasharray="2 10"/>
  <rect x="195.91000000000003" y="163.51" width="808.18" height="372.98" fill="#2563eb"/>
  <g fill="none" stroke="#fff" stroke-width="5">
    <rect x="195.91000000000003" y="163.51" width="808.18" height="372.98"/>
    <line x1="195.91000000000003" y1="210.09" x2="1004.0899999999999" y2="210.09"/>
    <line x1="195.91000000000003" y1="489.91" x2="1004.0899999999999" y2="489.91"/>
    <line x1="382.4" y1="210.09" x2="382.4" y2="489.91"/>
    <line x1="817.6" y1="210.09" x2="817.6" y2="489.91"/>
    <line x1="382.4" y1="350" x2="817.6" y2="350"/>
    <line x1="195.91000000000003" y1="350" x2="207.91000000000003" y2="350"/>
    <line x1="992.0899999999999" y1="350" x2="1004.0899999999999" y2="350"/>
  </g>
  <line x1="600" y1="133.51" x2="600" y2="566.49" stroke="#111827" stroke-width="7"/>
  <line x1="600" y1="133.51" x2="600" y2="566.49" stroke="#f8fafc" stroke-width="2" stroke-dasharray="4 4"/>
  <circle cx="600" cy="133.51" r="8" fill="#111827"/><circle cx="600" cy="566.49" r="8" fill="#111827"/>
  <circle cx="100" cy="90" r="14" fill="#e5e7eb" stroke="#374151" stroke-width="4"/><circle cx="1100" cy="90" r="14" fill="#e5e7eb" stroke="#374151" stroke-width="4"/><circle cx="100" cy="610" r="14" fill="#e5e7eb" stroke="#374151" stroke-width="4"/><circle cx="1100" cy="610" r="14" fill="#e5e7eb" stroke="#374151" stroke-width="4"/>
  
  <defs><radialGradient id="bg30" cx="35%" cy="30%" r="75%">
    <stop offset="0" stop-color="#f4ff8a"/><stop offset=".6" stop-color="#d4e83a"/><stop offset="1" stop-color="#9fb21c"/>
  </radialGradient></defs>
  <circle cx="430" cy="290" r="9" fill="url(#bg30)"/>
  <path d="M421.72 286.85 C 426.85 289.1, 426.85 295.4, 425.05 297.38"
        fill="none" stroke="#fff" stroke-width="0.8099999999999999" stroke-linecap="round" opacity=".95"/>
  <path d="M438.28 293.15 C 433.15 290.9, 433.15 284.6, 434.95 282.62"
        fill="none" stroke="#fff" stroke-width="0.8099999999999999" stroke-linecap="round" opacity=".95"/>
  <defs><radialGradient id="bg31" cx="35%" cy="30%" r="75%">
    <stop offset="0" stop-color="#f4ff8a"/><stop offset=".6" stop-color="#d4e83a"/><stop offset="1" stop-color="#9fb21c"/>
  </radialGradient></defs>
  <circle cx="840" cy="440" r="9" fill="url(#bg31)"/>
  <path d="M831.72 436.85 C 836.85 439.1, 836.85 445.4, 835.05 447.38"
        fill="none" stroke="#fff" stroke-width="0.8099999999999999" stroke-linecap="round" opacity=".95"/>
  <path d="M848.28 443.15 C 843.15 440.9, 843.15 434.6, 844.95 432.62"
        fill="none" stroke="#fff" stroke-width="0.8099999999999999" stroke-linecap="round" opacity=".95"/>
  <circle cx="30" cy="40" r="34" fill="#166534"/><circle cx="19.8" cy="29.8" r="18.700000000000003" fill="#22c55e" opacity=".6"/><circle cx="1170" cy="60" r="40" fill="#166534"/><circle cx="1158" cy="48" r="22" fill="#22c55e" opacity=".6"/><circle cx="25" cy="660" r="36" fill="#166534"/><circle cx="14.200000000000001" cy="649.2" r="19.8" fill="#22c55e" opacity=".6"/><circle cx="1175" cy="650" r="30" fill="#166534"/><circle cx="1166" cy="641" r="16.5" fill="#22c55e" opacity=".6"/><circle cx="600" cy="22" r="22" fill="#166534"/><circle cx="593.4" cy="15.4" r="12.100000000000001" fill="#22c55e" opacity=".6"/>
  <rect x="530" y="642" width="140" height="44" rx="10" fill="#1e3a5f"/>
  <text x="600" y="672" font-family="Arial" font-size="24" font-weight="700" fill="#c8d965" text-anchor="middle">COURT 1</text>
</svg>
