<svg xmlns="http://www.w3.org/2000/svg" viewBox="0 0 400 400">
  <defs><linearGradient id="pf26" x1="0" y1="0" x2="1" y2="1">
    <stop offset="0" stop-color="#f6f8fb"/><stop offset="1" stop-color="#e3e9f1"/></linearGradient></defs>
  <rect width="400" height="400" fill="url(#pf26)"/>
  <circle cx="330" cy="70" r="90" fill="#fff" opacity=".45"/>
  <ellipse cx="200" cy="350" rx="120" ry="14" fill="#1e3a5f" opacity=".12"/>
  
  <path d="M60 270 Q60 210 110 200 L170 170 Q190 150 215 165 L250 200 Q300 215 340 232 Q365 245 360 275 L60 275 Z" fill="#f8fafc" stroke="#cbd5e1" stroke-width="3"/>
  <path d="M170 170 Q190 150 215 165 L250 200 L190 215 Z" fill="#1e3a5f"/>
  <path d="M110 230 Q200 205 300 232" fill="none" stroke="#c8d965" stroke-width="12" stroke-linecap="round"/>
  <line x1="185" y1="175" x2="205" y2="170" stroke="#fff" stroke-width="4"/><line x1="199" y1="183" x2="219" y2="178" stroke="#fff" stroke-width="4"/><line x1="213" y1="191" x2="233" y2="186" stroke="#fff" stroke-width="4"/><line x1="227" y1="199" x2="247" y2="194" stroke="#fff" stroke-width="4"/>
  <path d="M52 275 L368 275 Q368 300 340 300 L80 300 Q52 300 52 275 Z" fill="#1e3a5f"/>
  <path d="M52 286 L368 286" stroke="#c8d965" stroke-width="4"/>
</svg>
